<svg xmlns="http://www.w3.org/2000/svg" xmlns:xlink="http://www.w3.org/1999/xlink" width="500" zoomAndPan="magnify" viewBox="0 0 375 125.999998" height="168" preserveAspectRatio="xMidYMid meet" version="1.0"><path fill="#662d91" d="M 86.125 1.992188 L 106.828125 1.992188 L 103.550781 8.128906 L 81.910156 8.128906 Z M 293.089844 8.128906 L 271.449219 8.128906 L 268.171875 1.992188 L 288.871094 1.992188 Z M 321.914062 102.699219 L 357.972656 102.699219 L 372.605469 124.03125 L 333.296875 124.03125 Z M 283.738281 102.699219 L 319.921875 102.699219 L 331.304688 124.03125 L 291.871094 124.03125 Z M 245.582031 102.699219 L 281.859375 102.699219 L 289.988281 124.03125 L 250.460938 124.03125 Z M 207.445312 102.699219 L 243.777344 102.699219 L 248.65625 124.03125 L 209.070312 124.03125 Z M 169.324219 102.699219 L 205.679688 102.699219 L 207.308594 124.03125 L 167.699219 124.03125 Z M 131.21875 102.699219 L 167.558594 102.699219 L 165.933594 124.03125 L 126.34375 124.03125 Z M 93.140625 102.699219 L 129.417969 102.699219 L 124.539062 124.03125 L 85.011719 124.03125 Z M 55.078125 102.699219 L 91.257812 102.699219 L 83.128906 124.03125 L 43.695312 124.03125 Z M 53.085938 102.699219 L 41.703125 124.03125 L 2.394531 124.03125 L 17.03125 102.699219 Z M 63.480469 83.21875 L 54.023438 100.945312 L 18.234375 100.945312 L 30.394531 83.21875 Z M 72.367188 66.570312 L 64.417969 81.464844 L 31.601562 81.464844 L 41.820312 66.570312 Z M 80.050781 52.164062 L 73.304688 64.808594 L 43.027344 64.808594 L 51.699219 52.164062 Z M 86.761719 39.589844 L 80.988281 50.410156 L 52.90625 50.410156 L 60.328125 39.589844 Z M 92.675781 28.507812 L 87.699219 37.832031 L 61.535156 37.832031 L 67.929688 28.507812 Z M 97.921875 18.675781 L 93.613281 26.75 L 69.132812 26.75 L 74.675781 18.675781 Z M 98.859375 16.917969 L 75.882812 16.917969 L 80.707031 9.890625 L 102.613281 9.890625 Z M 126.636719 9.890625 L 123.953125 16.917969 L 100.855469 16.917969 L 104.605469 9.890625 Z M 127.304688 8.128906 L 105.542969 8.128906 L 108.820312 1.992188 L 129.648438 1.992188 Z M 151.046875 8.128906 L 129.1875 8.128906 L 131.527344 1.992188 L 152.449219 1.992188 Z M 174.769531 8.128906 L 152.851562 8.128906 L 154.253906 1.992188 L 175.234375 1.992188 Z M 198.472656 8.128906 L 176.535156 8.128906 L 177.003906 1.992188 L 198.003906 1.992188 Z M 222.148438 8.128906 L 200.230469 8.128906 L 199.765625 1.992188 L 220.746094 1.992188 Z M 245.8125 8.128906 L 223.953125 8.128906 L 222.550781 1.992188 L 243.472656 1.992188 Z M 247.691406 8.128906 L 245.351562 1.992188 L 266.179688 1.992188 L 269.457031 8.128906 Z M 274.144531 16.917969 L 251.042969 16.917969 L 248.363281 9.890625 L 270.394531 9.890625 Z M 281.386719 26.75 L 277.078125 18.675781 L 300.320312 18.675781 L 305.863281 26.75 Z M 287.300781 37.832031 L 282.324219 28.507812 L 307.070312 28.507812 L 313.464844 37.832031 Z M 294.011719 50.410156 L 288.238281 39.589844 L 314.671875 39.589844 L 322.09375 50.410156 Z M 301.695312 64.808594 L 294.949219 52.164062 L 323.300781 52.164062 L 331.972656 64.808594 Z M 310.582031 81.464844 L 302.632812 66.570312 L 333.179688 66.570312 L 343.398438 81.464844 Z M 311.519531 83.21875 L 344.605469 83.21875 L 356.765625 100.945312 L 320.976562 100.945312 Z M 276.316406 83.21875 L 309.527344 83.21875 L 318.984375 100.945312 L 283.070312 100.945312 Z M 241.128906 83.21875 L 274.433594 83.21875 L 281.1875 100.945312 L 245.179688 100.945312 Z M 205.960938 83.21875 L 239.324219 83.21875 L 243.378906 100.945312 L 207.308594 100.945312 Z M 170.808594 83.21875 L 204.195312 83.21875 L 205.546875 100.945312 L 169.457031 100.945312 Z M 135.675781 83.21875 L 169.046875 83.21875 L 167.695312 100.945312 L 131.621094 100.945312 Z M 100.566406 83.21875 L 133.871094 83.21875 L 129.820312 100.945312 L 93.8125 100.945312 Z M 98.683594 83.21875 L 91.925781 100.945312 L 56.015625 100.945312 L 65.472656 83.21875 Z M 105.03125 66.570312 L 99.355469 81.464844 L 66.410156 81.464844 L 74.359375 66.570312 Z M 110.519531 52.164062 L 105.703125 64.808594 L 75.296875 64.808594 L 82.042969 52.164062 Z M 115.316406 39.589844 L 111.191406 50.410156 L 82.980469 50.410156 L 88.753906 39.589844 Z M 119.535156 28.507812 L 115.984375 37.832031 L 89.695312 37.832031 L 94.667969 28.507812 Z M 120.207031 26.75 L 95.605469 26.75 L 99.917969 18.675781 L 123.285156 18.675781 Z M 148.632812 18.675781 L 146.785156 26.75 L 122.089844 26.75 L 125.167969 18.675781 Z M 149.035156 16.917969 L 125.839844 16.917969 L 128.515625 9.890625 L 150.644531 9.890625 Z M 174.097656 16.917969 L 150.839844 16.917969 L 152.449219 9.890625 L 174.636719 9.890625 Z M 199.140625 16.917969 L 175.863281 16.917969 L 176.398438 9.890625 L 198.601562 9.890625 Z M 224.160156 16.917969 L 200.902344 16.917969 L 200.367188 9.890625 L 222.554688 9.890625 Z M 225.964844 16.917969 L 224.355469 9.890625 L 246.484375 9.890625 L 249.160156 16.917969 Z M 252.910156 26.75 L 228.214844 26.75 L 226.363281 18.675781 L 249.832031 18.675781 Z M 254.792969 26.75 L 251.710938 18.675781 L 275.082031 18.675781 L 279.394531 26.75 Z M 259.011719 37.832031 L 255.460938 28.507812 L 280.332031 28.507812 L 285.308594 37.832031 Z M 263.808594 50.410156 L 259.683594 39.589844 L 286.246094 39.589844 L 292.019531 50.410156 Z M 269.300781 64.808594 L 264.480469 52.164062 L 292.957031 52.164062 L 299.703125 64.808594 Z M 269.96875 66.570312 L 300.640625 66.570312 L 308.589844 81.464844 L 275.644531 81.464844 Z M 237.320312 66.570312 L 268.085938 66.570312 L 273.765625 81.464844 L 240.726562 81.464844 Z M 204.6875 66.570312 L 235.515625 66.570312 L 238.921875 81.464844 L 205.824219 81.464844 Z M 172.078125 66.570312 L 202.925781 66.570312 L 204.0625 81.464844 L 170.945312 81.464844 Z M 139.484375 66.570312 L 170.3125 66.570312 L 169.179688 81.464844 L 136.078125 81.464844 Z M 137.679688 66.570312 L 134.273438 81.464844 L 101.234375 81.464844 L 106.914062 66.570312 Z M 140.972656 52.164062 L 138.082031 64.808594 L 107.582031 64.808594 L 112.402344 52.164062 Z M 143.851562 39.589844 L 141.378906 50.410156 L 113.074219 50.410156 L 117.195312 39.589844 Z M 144.25 37.832031 L 117.867188 37.832031 L 121.421875 28.507812 L 146.382812 28.507812 Z M 173.214844 28.507812 L 172.503906 37.832031 L 146.054688 37.832031 L 148.1875 28.507812 Z M 173.347656 26.75 L 148.589844 26.75 L 150.4375 18.675781 L 173.964844 18.675781 Z M 199.890625 26.75 L 175.113281 26.75 L 175.726562 18.675781 L 199.273438 18.675781 Z M 201.652344 26.75 L 201.039062 18.675781 L 224.5625 18.675781 L 226.410156 26.75 Z M 228.941406 37.832031 L 202.496094 37.832031 L 201.789062 28.507812 L 226.808594 28.507812 Z M 230.746094 37.832031 L 228.613281 28.507812 L 253.578125 28.507812 L 257.132812 37.832031 Z M 233.621094 50.410156 L 231.148438 39.589844 L 257.804688 39.589844 L 261.929688 50.410156 Z M 234.027344 52.164062 L 262.597656 52.164062 L 267.414062 64.808594 L 236.917969 64.808594 Z M 203.589844 52.164062 L 232.222656 52.164062 L 235.113281 64.808594 L 204.554688 64.808594 Z M 173.175781 52.164062 L 201.828125 52.164062 L 202.792969 64.808594 L 172.210938 64.808594 Z M 171.414062 52.164062 L 170.449219 64.808594 L 139.886719 64.808594 L 142.777344 52.164062 Z M 171.546875 50.410156 L 143.179688 50.410156 L 145.65625 39.589844 L 172.371094 39.589844 Z M 202.632812 39.589844 L 229.34375 39.589844 L 231.820312 50.410156 L 203.457031 50.410156 Z M 174.269531 37.832031 L 174.980469 28.507812 L 200.023438 28.507812 L 200.734375 37.832031 Z M 200.867188 39.589844 L 201.695312 50.410156 L 173.3125 50.410156 L 174.132812 39.589844 Z M 299.117188 16.917969 L 276.140625 16.917969 L 272.386719 9.890625 L 294.292969 9.890625 Z M 375 124.414062 L 290.0625 0.613281 L 289.339844 1.109375 L 289.339844 0.230469 L 85.660156 0.230469 L 85.660156 1.109375 L 84.9375 0.613281 L 0 124.414062 L 0.726562 124.910156 L 0.726562 125.789062 L 374.273438 125.789062 L 374.273438 124.910156 L 375 124.414062 " fill-opacity="1" fill-rule="nonzero"/></svg>